{"title":"Gimme the Loot 2012 DVDRip XViD juggs","uid":8538055,"size":745564895,"categoryP":"video","categoryS":"movies","magnet":"?xt=urn:btih:d9cad7770d3717b715f1bd521d866979d79ed496&amp;dn=Gimme+the+Loot+2012+DVDRip+XViD+juggs&amp;tr=udp%3A%2F%2Ftracker.openbittorrent.com%3A80&amp;tr=udp%3A%2F%2Fopen.demonii.com%3A1337&amp;tr=udp%3A%2F%2Ftracker.coppersurfer.tk%3A6969&amp;tr=udp%3A%2F%2Fexodus.desync.com%3A6969","seeders":14,"leechers":6,"uploader":"juggs99","files":3,"time":1370312115,"description":"Source : DVDR IGUANA(Thanks)\n &lt;a href=&quot;\nhttp://www.imdb.com/title/tt2139919/&quot; rel=&quot;nofollow&quot; target=&quot;_NEW&quot;&gt;\nhttp://www.imdb.com/title/tt2139919/&lt;/a&gt;\n\nFormat                                   : AVI\nFormat/Info                              : Audio Video Interleave\nFile size                                : 701 MiB\nDuration                                 : 1h 16mn\nOverall bit rate                         : 1 285 Kbps\nWriting library                          : VirtualDub build 32842/release\n\nVideo\nID                                       : 0\nFormat                                   : MPEG-4 Visual\nFormat profile                           : Advanced Simple@L5\nFormat settings, BVOP                    : 2\nFormat settings, QPel                    : No\nFormat settings, GMC                     : No warppoints\nFormat settings, Matrix                  : Default (H.263)\nMuxing mode                              : Packed bitstream\nCodec ID                                 : XVID\nCodec ID/Hint                            : XviD\nDuration                                 : 1h 16mn\nBit rate                                 : 1 147 Kbps\nWidth                                    : 640 pixels\nHeight                                   : 352 pixels\nDisplay aspect ratio                     : 16:9\nFrame rate                               : 25.000 fps\nColor space                              : YUV\nChroma subsampling                       : 4:2:0\nBit depth                                : 8 bits\nScan type                                : Progressive\nCompression mode                         : Lossy\nBits/(Pixel*Frame)                       : 0.204\nStream size                              : 626 MiB (89%)\nWriting library                          : XviD 64\n\nAudio\nID                                       : 1\nFormat                                   : MPEG Audio\nFormat version                           : Version 1\nFormat profile                           : Layer 3\nCodec ID                                 : 55\nCodec ID/Hint                            : MP3\nDuration                                 : 1h 16mn\nBit rate mode                            : Constant\nBit rate                                 : 128 Kbps\nChannel(s)                               : 2 channels\nSampling rate                            : 48.0 KHz\nCompression mode                         : Lossy\nStream size                              : 69.8 MiB (10%)\nAlignment                                : Split accross interleaves\nInterleave, duration                     : 40 ms (1.00 video frame)\nInterleave, preload duration             : 500 ms\nWriting library                          : LAME3.99r\nEncoding settings                        : -m s -V 4 -q 3 -lowpass 17 -b 128\n\nPlot\nWhen their latest work is buffed by a rival crew, two determined graffiti writers embark on an elaborate plan to bomb the ultimate location: the New York Mets' Home Run Apple.\n\n &lt;a href=&quot;\nhttp://www.shotpix.com/images/95474488405470858626.png&quot; rel=&quot;nofollow&quot; target=&quot;_NEW&quot;&gt;\nhttp://www.shotpix.com/images/95474488405470858626.png&lt;/a&gt; &lt;a href=&quot;\nhttp://www.shotpix.com/images/46077665344081275479.png&quot; rel=&quot;nofollow&quot; target=&quot;_NEW&quot;&gt;\nhttp://www.shotpix.com/images/46077665344081275479.png&lt;/a&gt; &lt;a href=&quot;\nhttp://www.shotpix.com/images/04993342722251836409.png&quot; rel=&quot;nofollow&quot; target=&quot;_NEW&quot;&gt;\nhttp://www.shotpix.com/images/04993342722251836409.png&lt;/a&gt;","torrent":{"xt":"urn:btih:d9cad7770d3717b715f1bd521d866979d79ed496","amp;dn":"Gimme+the+Loot+2012+DVDRip+XViD+juggs","amp;tr":["udp%3A%2F%2Ftracker.openbittorrent.com%3A80","udp%3A%2F%2Fopen.demonii.com%3A1337","udp%3A%2F%2Ftracker.coppersurfer.tk%3A6969","udp%3A%2F%2Fexodus.desync.com%3A6969"],"infoHash":"d9cad7770d3717b715f1bd521d866979d79ed496","infoHashBuffer":{"type":"Buffer","data":[217,202,215,119,13,55,23,183,21,241,189,82,29,134,105,121,215,158,212,150]},"announce":[],"urlList":[]}}